<svg width="80" height="80" viewBox="0 0 80 80" fill="none" xmlns="http://www.w3.org/2000/svg">
<path d="M60.0001 40C60.0001 28.9543 51.0458 20 40.0001 20V13.3333C54.7278 13.3333 66.6668 25.2724 66.6668 40H60.0001ZM40.0001 60C51.0458 60 60.0001 51.0456 60.0001 40H66.6668C66.6668 54.7276 54.7278 66.6666 40.0001 66.6666V60ZM38.3818 59.9356C38.9151 59.9783 39.4548 60 40.0001 60V66.6666C39.2775 66.6666 38.5605 66.6376 37.8511 66.581L38.3818 59.9356ZM36.5531 54.055C42.6011 50.608 46.6668 44.1093 46.6668 36.665H53.3335C53.3335 46.6006 47.8981 55.2626 39.8545 59.847L36.5531 54.055ZM46.6668 36.665C46.6668 29.7973 43.2085 23.7366 37.9228 20.1303L41.6801 14.6233C48.7081 19.4185 53.3335 27.5011 53.3335 36.665H46.6668ZM37.8511 66.581C36.1521 66.4453 34.4728 66.321 33.2193 66.025C32.061 65.7517 29.7158 64.969 29.1315 62.3456L35.6388 60.8963C35.5088 60.3123 35.1488 59.8626 34.8025 59.6183C34.5628 59.4496 34.4541 59.4666 34.7511 59.5366C35.0185 59.6 35.4321 59.6656 36.0755 59.734C36.7095 59.8017 37.4578 59.8616 38.3818 59.9356L37.8511 66.581ZM39.8545 59.847C37.7395 61.0523 36.4378 61.8013 35.6595 62.379C35.2695 62.669 35.2608 62.7386 35.3558 62.601C35.5108 62.3756 35.8258 61.7363 35.6388 60.8963L29.1315 62.3456C28.8106 60.9046 29.2789 59.6707 29.8661 58.8183C30.3928 58.054 31.0949 57.465 31.6856 57.0263C32.8691 56.1477 34.6105 55.1623 36.5531 54.055L39.8545 59.847ZM40.0001 20C41.5008 20 42.5518 18.9297 42.8555 17.8237C43.1495 16.7522 42.8235 15.4032 41.6801 14.6233L37.9228 20.1303C36.4661 19.1365 36.0495 17.4325 36.4265 16.0593C36.8128 14.6517 38.1201 13.3333 40.0001 13.3333V20Z" fill="white"/>
<path d="M18 34C18.3379 35.0137 18.5069 35.5207 18.6759 35.7417C19.343 36.6143 20.6571 36.6143 21.3242 35.7417C21.4932 35.5207 21.6621 35.0137 22 34C22.2726 33.1823 22.4089 32.7734 22.5852 32.4033C23.2431 31.0224 24.3558 29.9097 25.7367 29.2518C26.1067 29.0755 26.5156 28.9392 27.3334 28.6667C28.3471 28.3288 28.854 28.1598 29.075 27.9908C29.9477 27.3237 29.9477 26.0096 29.075 25.3425C28.854 25.1735 28.3471 25.0046 27.3334 24.6667C26.5156 24.3941 26.1067 24.2578 25.7367 24.0815C24.3558 23.4236 23.2431 22.311 22.5852 20.93C22.4089 20.56 22.2726 20.1511 22 19.3333C21.6621 18.3196 21.4932 17.8127 21.3242 17.5917C20.6571 16.719 19.343 16.719 18.6759 17.5917C18.5069 17.8127 18.3379 18.3196 18 19.3333C17.7275 20.1511 17.5912 20.56 17.4149 20.93C16.757 22.311 15.6443 23.4236 14.2634 24.0815C13.8933 24.2578 13.4844 24.3941 12.6667 24.6667C11.653 25.0046 11.1461 25.1735 10.925 25.3425C10.0523 26.0096 10.0523 27.3237 10.925 27.9908C11.1461 28.1598 11.653 28.3288 12.6667 28.6667C13.4844 28.9392 13.8933 29.0755 14.2634 29.2518C15.6443 29.9097 16.757 31.0224 17.4149 32.4033C17.5912 32.7734 17.7274 33.1823 18 34Z" stroke="white" stroke-width="2"/>
</svg>
