<svg width="80" height="80" viewBox="0 0 80 80" fill="none" xmlns="http://www.w3.org/2000/svg">
<path d="M40.0001 36.6667C47.3639 36.6667 53.3334 30.6971 53.3334 23.3333C53.3334 15.9695 47.3639 10 40.0001 10C32.6363 10 26.6667 15.9695 26.6667 23.3333C26.6667 30.6971 32.6363 36.6667 40.0001 36.6667Z" stroke="white" stroke-width="2" stroke-linecap="round"/>
<path d="M17.7929 61.0687C19.9966 51.7564 29.2391 46.6667 38.8087 46.6667H41.1913C50.761 46.6667 60.0033 51.7564 62.207 61.0687C62.6333 62.8704 62.9724 64.756 63.163 66.672C63.3454 68.504 61.841 70 60 70H20C18.1591 70 16.6547 68.504 16.837 66.672C17.0277 64.756 17.3666 62.8704 17.7929 61.0687Z" stroke="white" stroke-width="2" stroke-linecap="round"/>
</svg>
