<svg width="80" height="80" viewBox="0 0 80 80" fill="none" xmlns="http://www.w3.org/2000/svg">
<path d="M65 21L60.177 24.6929C59.0386 25.5645 57.6542 26.0357 56.231 26.0357H45.1879C43.2231 26.0357 41.4267 27.1691 40.5481 28.9633C39.4636 31.1775 40.0262 33.8633 41.9028 35.431L48.4795 40.9243C53.655 45.2476 56.3333 51.9529 55.5951 58.7383L55.4428 60.1366C55.2383 62.0166 54.8398 63.869 54.2538 65.6634L53.4909 68" stroke="white" stroke-width="2"/>
<path d="M8 34.8647L18.9343 33.0918C23.5053 32.3507 27.4681 36.206 26.7062 40.6526L26.252 43.3039C25.4388 48.0508 27.903 52.7586 32.3275 54.9106C35.8702 56.6339 37.7075 60.5198 36.7468 64.2578L35.0142 71" stroke="white" stroke-width="2"/>
<path d="M39.5 71C56.897 71 71 57.1208 71 40C71 22.8792 56.897 9 39.5 9C22.103 9 8 22.8792 8 40C8 57.1208 22.103 71 39.5 71Z" stroke="white" stroke-width="2"/>
</svg>
